# xmcd CD database file
#
# Track frame offsets:
#	150
#	24325
#	45575
#	62610
#	84032
#	105975
#	132250
#	156350
#
# Disc length: 2708 seconds
#
# Revision: 0
# Processed by: cddbd v1.5.2PL0 Copyright (c) Steve Scherf et al.
# Submitted via: CDex 1.51
#
DISCID=530a9208
DTITLE=akiko - What's Jazz_-SPIRIT-
DYEAR=2008
DGENRE=Jazz
TTITLE0=Music Elevation
TTITLE1=Real
TTITLE2=Universal Love
TTITLE3=Big Bang
TTITLE4=Take Me There
TTITLE5=The Transformer
TTITLE6=Voice Me Faz - Rise Me Up
TTITLE7=The Reason Of My Tears
EXTD=YEAR: 2008
EXTT0=
EXTT1=
EXTT2=
EXTT3=
EXTT4=
EXTT5=
EXTT6=
EXTT7=
PLAYORDER=
